<?xml version="1.0" standalone="no"?>
<!DOCTYPE svg PUBLIC "-//W3C//DTD SVG 20010904//EN"
 "http://www.w3.org/TR/2001/REC-SVG-20010904/DTD/svg10.dtd">
<svg version="1.0" xmlns="http://www.w3.org/2000/svg"
 width="600.000000pt" height="153.000000pt" viewBox="0 0 600.000000 153.000000"
 preserveAspectRatio="xMidYMid meet">
<metadata>
Created by potrace 1.15, written by Peter Selinger 2001-2017
</metadata>
<g transform="translate(0.000000,153.000000) scale(0.100000,-0.100000)"
fill="#000000" stroke="none">
<path d="M0 765 l0 -765 3000 0 3000 0 0 765 0 765 -3000 0 -3000 0 0 -765z
m5895 0 l0 -660 -2895 0 -2895 0 -3 650 c-1 358 0 656 3 663 3 10 588 12 2897
10 l2893 -3 0 -660z"/>
<path d="M1385 926 c-42 -18 -65 -47 -72 -89 -4 -29 -1 -40 20 -61 32 -32 68
-33 102 -3 20 17 27 32 27 60 0 43 19 50 36 12 17 -38 15 -53 -13 -80 -21 -21
-33 -25 -89 -25 -97 0 -136 -19 -136 -67 0 -48 26 -53 281 -53 l237 0 4 25 5
25 -228 0 c-146 0 -229 4 -229 10 0 6 29 10 68 10 156 0 227 61 191 164 -24
70 -127 106 -204 72z"/>
<path d="M2845 921 c-48 -22 -79 -54 -100 -103 -20 -49 -19 -84 4 -134 29 -64
100 -90 161 -59 57 30 75 86 45 144 -24 48 -77 55 -121 17 -22 -18 -28 -32
-28 -65 -1 -35 -3 -39 -13 -24 -33 44 1 141 57 170 54 27 133 3 161 -49 22
-40 14 -114 -15 -158 l-26 -40 139 0 c124 0 140 2 145 18 3 9 17 71 31 137 14
66 28 128 31 138 5 15 -2 17 -43 17 l-49 0 -18 -92 c-32 -170 -31 -168 -77
-168 -38 0 -40 2 -32 23 4 12 8 47 8 78 0 46 -5 62 -29 93 -53 70 -150 94
-231 57z"/>
<path d="M1975 915 c-45 -17 -90 -57 -111 -97 -44 -84 18 -197 109 -198 62 0
117 54 117 115 0 34 -50 85 -84 85 -40 0 -78 -40 -86 -91 l-6 -44 -12 39 c-30
102 96 187 217 145 36 -13 36 -15 15 -58 -64 -128 31 -249 128 -162 30 27 33
35 32 84 0 44 -5 62 -28 92 -23 30 -26 39 -15 46 20 12 73 11 102 -2 l25 -11
-24 -35 c-85 -125 20 -271 122 -169 42 42 45 90 9 161 -28 57 -23 65 43 65 39
0 42 -2 37 -22 -19 -88 -45 -214 -45 -225 0 -17 79 -18 85 0 3 6 16 64 28 127
22 111 24 115 50 118 21 3 27 9 27 28 0 24 0 24 -105 24 -73 0 -117 -5 -145
-16 -37 -15 -43 -15 -80 0 -52 21 -95 20 -146 -3 -37 -17 -43 -17 -69 -3 -41
21 -142 25 -190 7z"/>
<path d="M3461 880 c-6 -28 -11 -58 -11 -65 0 -9 -9 -15 -21 -15 -28 0 -79
-53 -79 -82 0 -13 7 -34 16 -46 58 -84 219 -57 255 43 14 38 32 44 67 19 36
-25 23 -74 -20 -74 -12 0 -18 -7 -18 -21 0 -19 4 -21 41 -16 73 10 116 74 84
124 -18 27 -71 53 -109 53 -16 0 -24 5 -22 13 3 6 7 24 10 40 6 25 10 27 55
27 44 0 49 2 53 25 l5 25 -148 0 -147 0 -11 -50z"/>
<path d="M3905 918 c-2 -7 -17 -77 -33 -155 l-29 -143 194 0 c210 0 234 5 267
54 23 36 21 127 -4 177 -40 78 -124 102 -181 51 -26 -24 -34 -43 -53 -127
l-22 -100 -49 -3 -48 -3 6 33 c6 33 33 162 42 206 5 20 2 22 -40 22 -28 0 -47
-5 -50 -12z m348 -79 c10 -15 22 -47 24 -72 5 -39 2 -49 -20 -71 -20 -20 -36
-26 -72 -26 -32 0 -45 4 -45 14 0 24 31 148 41 168 14 26 47 19 72 -13z"/>
</g>
</svg>
